<svg width="678" height="805" viewBox="0 0 678 805" fill="none" xmlns="http://www.w3.org/2000/svg">
<g filter="url(#filter0_f_1_1813)">
<path d="M405.303 707.179C405.978 651.372 391.433 576.056 355.658 476.619C392.332 394.13 819.289 789.038 405.303 707.179C402.116 970.52 60.0189 799.419 10.5824 678.322C-64.3086 494.874 -88.3907 485.354 -163.612 450.292C-238.833 415.23 -395.212 305.535 -256.876 258.56C-250.43 256.371 -244.646 254.478 -239.467 252.858C-257.883 223.817 -263.193 187.318 -209.085 150.541C69.8372 -39.0423 423.098 290.245 321.492 412.276C228.333 524.161 358.304 697.885 405.303 707.179Z" fill="#9747FF"/>
</g>
<defs>
<filter id="filter0_f_1_1813" x="-405.043" y="0" width="1082.79" height="938.797" filterUnits="userSpaceOnUse" color-interpolation-filters="sRGB">
<feFlood flood-opacity="0" result="BackgroundImageFix"/>
<feBlend mode="normal" in="SourceGraphic" in2="BackgroundImageFix" result="shape"/>
<feGaussianBlur stdDeviation="46.5" result="effect1_foregroundBlur_1_1813"/>
</filter>
</defs>
</svg>
