<svg width="60" height="60" viewBox="0 0 60 60" fill="none" xmlns="http://www.w3.org/2000/svg">
<g clip-path="url(#clip0_106_683)">
<path d="M7.9 9.79688V50.2969C3 44.8969 0 37.7969 0 29.9969C0 22.1969 3 15.0969 7.9 9.79688Z" fill="white"/>
<path d="M11.1001 14.2031L28.4001 48.9031H11.1001V14.2031Z" fill="white"/>
<path d="M30 45.0016L13 11.1016H47L30 45.0016Z" fill="white"/>
<path d="M30 0C37.8 0 44.9001 3 50.2001 7.9H9.80005C15.1 3 22.2 0 30 0Z" fill="white"/>
<path d="M48.9001 48.9031H31.6001L48.9001 14.2031V48.9031Z" fill="white"/>
<path d="M50.2001 52.1016C44.9001 57.0016 37.8 60.0016 30 60.0016C22.2 60.0016 15.1 57.0016 9.80005 52.1016H50.2001Z" fill="white"/>
<path d="M52.1001 50.1969V9.79688C57.0001 15.0969 60.0001 22.1969 60.0001 29.9969C60.0001 37.7969 57.0001 44.8969 52.1001 50.1969Z" fill="white"/>
<path d="M11.1001 14.2031L28.4001 48.9031H11.1001V14.2031Z" fill="white"/>
<path d="M30 45.0016L13 11.1016H47L30 45.0016Z" fill="white"/>
<path d="M31.6001 48.9031L48.9001 14.2031V48.9031H31.6001Z" fill="white"/>
<path d="M13 11.1016H47L30 45.0016L13 11.1016Z" fill="white"/>
</g>
<defs>
<clipPath id="clip0_106_683">
<rect width="60" height="60" fill="white"/>
</clipPath>
</defs>
</svg>
